Coordinates
version=1
nRows=13
nColumns=40
inDegrees=yes

Units are S.I. units (second, meters, Newtons, ...)
Angles are in degrees.

endheader
time	pelvis_tilt	pelvis_list	pelvis_rotation	pelvis_tx	pelvis_ty	pelvis_tz	hip_flexion_r	hip_adduction_r	hip_rotation_r	knee_angle_r	knee_angle_r_beta	ankle_angle_r	subtalar_angle_r	mtp_angle_r	hip_flexion_l	hip_adduction_l	hip_rotation_l	knee_angle_l	knee_angle_l_beta	ankle_angle_l	subtalar_angle_l	mtp_angle_l	lumbar_extension	lumbar_bending	lumbar_rotation	arm_flex_r	arm_add_r	arm_rot_r	elbow_flex_r	pro_sup_r	wrist_flex_r	wrist_dev_r	arm_flex_l	arm_add_l	arm_rot_l	elbow_flex_l	pro_sup_l	wrist_flex_l	wrist_dev_l
     54.03000000	     -3.30576084	     -3.39143777	     -1.25199438	      1.09968867	      0.93182105	      0.43472083	     31.47736051	     -6.94965377	     -6.24159973	     69.34693580	     69.34693580	     -3.14412576	    -17.77379761	      3.51523247	     14.97855124	     -3.65010898	     -8.06484355	     22.33536576	     22.33536576	     12.70989804	    -13.44167667	     -1.16401132	    -10.10231779	      5.58371993	      1.65690299	     17.27624511	    -11.85891178	     -3.61302729	     67.76204346	     43.93140069	      0.00000000	      0.00000000	     10.07224768	    -11.54113054	      2.04907735	     39.34017264	     44.25370001	      0.00000000	      0.00000000
     54.04135714	     -3.23899497	     -3.42472363	     -1.57557267	      1.09899782	      0.93232035	      0.43446485	     32.55650231	     -6.89178873	     -6.40588365	     67.86484193	     67.86484193	     -2.80772644	    -18.00041697	      3.35715594	     13.90767721	     -3.69512874	     -8.54541262	     21.73699415	     21.73699415	     12.92154806	    -13.04197414	     -1.74798880	    -10.18497189	      5.66677748	      1.76835437	     15.94519793	    -12.00289928	     -3.38110200	     62.79612250	     44.16609017	      0.00000000	      0.00000000	     11.66368069	    -12.02902629	      1.90239237	     40.73713643	     44.40584536	      0.00000000	      0.00000000
     54.05271429	     -3.16178183	     -3.47302415	     -1.88023613	      1.09834876	      0.93279351	      0.43423681	     33.48298762	     -6.77503017	     -6.59488289	     66.18843507	     66.18843507	     -2.35775531	    -18.13458290	      3.88231568	     12.83494320	     -3.74522395	     -9.02095287	     21.14184143	     21.14184143	     13.12898251	    -12.61443229	     -2.28787859	    -10.29835618	      5.76625837	      1.74593105	     15.04128384	    -12.08387891	     -2.91744124	     57.25845457	     44.40780227	      0.00000000	      0.00000000	     13.00820040	    -12.64864824	      1.71713046	     42.61467293	     44.56185576	      0.00000000	      0.00000000
     54.06407143	     -3.08814360	     -3.50777838	     -2.16643705	      1.09777343	      0.93318461	      0.43405778	     34.27333933	     -6.63948460	     -6.79206802	     64.31251859	     64.31251859	     -1.86344378	    -18.18955535	      4.73900591	     11.75968913	     -3.77454320	     -9.51538791	     20.52182321	     20.52182321	     13.34555252	    -12.12008341	     -2.78517791	    -10.40464658	      5.84453672	      1.68425788	     14.31480965	    -12.08086562	     -2.47696135	     51.52181825	     44.65452936	      0.00000000	      0.00000000	     14.27723658	    -13.25682112	      1.40015054	     44.55319803	     44.73341980	      0.00000000	      0.00000000
     54.07542857	     -2.97621724	     -3.50177894	     -2.41327245	      1.09730510	      0.93350016	      0.43385012	     34.87917392	     -6.51947377	     -6.95785228	     62.21686856	     62.21686856	     -1.39192352	    -18.18961135	      5.50946929	     10.62757469	     -3.73237035	     -9.97202621	     19.86584219	     19.86584219	     13.59899871	    -11.59198084	     -3.21774375	    -10.56103285	      5.88935625	      1.63913962	     13.55170116	    -12.06796975	     -2.23889241	     46.18438776	     44.88907600	      0.00000000	      0.00000000	     15.56105603	    -13.81882480	      0.92115230	     46.51123544	     44.91688413	      0.00000000	      0.00000000
     54.08678571	     -2.89944714	     -3.51519010	     -2.65265762	      1.09694905	      0.93387562	      0.43367947	     35.30212176	     -6.40745840	     -7.25927198	     59.73503973	     59.73503973	     -1.24614723	    -18.12089671	      5.89142206	      9.44704164	     -3.67107351	    -10.37149112	     19.03552766	     19.03552766	     13.85583155	    -11.08179684	     -3.28706719	    -10.76655831	      5.98733623	      2.18079650	     11.61870043	    -12.58778924	     -2.13177670	     43.64751162	     44.97986424	      0.00000000	      0.00000000	     17.19089320	    -13.93521369	      0.60113879	     48.00904159	     44.99871576	      0.00000000	      0.00000000
     54.09814286	     -2.87144596	     -3.46191542	     -2.82961347	      1.09663721	      0.93388298	      0.43362204	     35.66777191	     -6.32661455	     -7.50436765	     57.05956346	     57.05956346	     -1.11161687	    -17.96316491	      5.95948732	      8.43321640	     -3.62545836	    -11.05192839	     18.40503622	     18.40503622	     14.05866018	    -10.14859379	     -4.05105893	    -10.78570443	      5.96603520	      1.57913655	     11.94246811	    -11.99864097	     -2.66348876	     36.41957940	     45.34027817	      0.00000000	      0.00000000	     17.85058642	    -14.81939446	      0.01987292	     50.44882149	     45.19252919	      0.00000000	      0.00000000
     54.10950000	     -2.85137233	     -3.34453951	     -2.99073139	      1.09641818	      0.93382869	      0.43354910	     35.89626150	     -6.29161939	     -7.72153567	     54.09737727	     54.09737727	     -1.03035425	    -17.60545128	      5.93260916	      7.32225906	     -3.41743448	    -11.46687172	     17.56305714	     17.56305714	     14.32286295	     -9.50426657	     -4.19775682	    -10.87886474	      5.90145340	      1.95652727	     10.04304953	    -12.35860358	     -2.87349731	     34.03402327	     45.45117850	      0.00000000	      0.00000000	     19.26781760	    -14.97607491	     -0.50147852	     52.27096181	     45.30555803	      0.00000000	      0.00000000
     54.12085714	     -2.90856619	     -3.22766543	     -3.07585088	      1.09633037	      0.93358629	      0.43343753	     35.93557503	     -6.27237502	     -8.04076793	     50.65467644	     50.65467644	     -1.54042474	    -17.22928837	      4.01493488	      6.30690911	     -3.22155868	    -11.92829796	     16.73829979	     16.73829979	     14.51078016	     -8.71194054	     -4.60676627	    -10.84966838	      5.85911858	      1.43826192	      9.65546959	    -11.92388888	     -5.06810140	     29.01650720	     45.88892686	      0.00000000	      0.00000000	     19.69818393	    -15.52365867	     -1.84439976	     55.17486399	     45.66360507	      0.00000000	      0.00000000
     54.13221429	     -2.92474977	     -3.13687394	     -3.14555692	      1.09634174	      0.93326007	      0.43350231	     35.83133724	     -6.18262618	     -8.34605729	     47.08852488	     47.08852488	     -1.32180947	    -16.27261700	      4.00778533	      5.22414208	     -3.05519778	    -12.37331917	     15.89089560	     15.89089560	     14.80091926	     -7.84090561	     -4.81953090	    -10.90328032	      5.85984594	      1.73799151	      7.51781188	    -12.35752221	     -5.24733824	     27.48458982	     45.95905022	      0.00000000	      0.00000000	     21.01338252	    -15.66196383	     -2.12998038	     56.78916405	     45.73521399	      0.00000000	      0.00000000
     54.14357143	     -3.02906305	     -3.00156746	     -3.15114974	      1.09644144	      0.93264954	      0.43350827	     35.64557781	     -6.15878314	     -8.71003467	     43.25760120	     43.25760120	     -1.15999105	    -14.91470684	      3.82456341	      4.25474159	     -2.84229729	    -12.79707258	     15.07165565	     15.07165565	     15.09955922	     -6.90377402	     -5.09039852	    -10.80038145	      5.81998816	      1.85100721	      5.42843260	    -12.70881531	     -5.51547302	     25.97285575	     46.03684038	      0.00000000	      0.00000000	     22.12953879	    -15.85027873	     -2.43958146	     58.58551059	     45.80648627	      0.00000000	      0.00000000
     54.15492857	     -3.05311966	     -2.74119528	     -3.16653478	      1.09678151	      0.93186828	      0.43366699	     35.22232605	     -6.25224910	     -9.08223559	     39.24156457	     39.24156457	     -1.13087135	    -13.20886961	      2.68871635	      3.11606523	     -2.52160602	    -13.55107345	     14.13718223	     14.13718223	     15.41676307	     -5.40555478	     -5.62301082	    -10.82960418	      5.58152612	      2.02426049	      3.48620319	    -12.88632260	     -6.34364049	     24.02566787	     46.19803391	      0.00000000	      0.00000000	     22.86362749	    -16.08712108	     -2.92354263	     61.73767228	     45.92660671	      0.00000000	      0.00000000
     54.16628571	     -3.20544595	     -2.67796923	     -3.05428783	      1.09719457	      0.93083554	      0.43389769	     34.66860289	     -6.11051242	     -9.60624133	     34.95821089	     34.95821089	     -0.89411122	    -11.37543269	      2.60049614	      2.23688532	     -2.40133071	    -13.79973487	     13.41378604	     13.41378604	     15.74328251	     -4.60272137	     -5.85533414	    -10.61045198	      5.62286823	      1.83678378	      1.46474201	    -13.16793740	     -6.80231868	     22.91036343	     46.28054126	      0.00000000	      0.00000000	     23.62781970	    -16.39373393	     -3.32175798	     63.57482272	     46.00361090	      0.00000000	      0.00000000
